The Fantastic Mr. Fox 
http://www.imdb.com/title/tt0432283/
Release Date: 25 November 2009 (USA)
Genre: Animation | Adventure | Comedy | Family
Runtime: 87 min
Country: USA | UK
Language: English | French
Color: Color
Aspect Ratio: 1.85 : 1




General
Complete name                    : The.Fantastic.Mr.Fox.DVDSCR-DONEDEAL.avi
Format                           : AVI
Format/Info                      : Audio Video Interleave
File size                        : 677 MiB
Duration                         : 1h 27mn
Overall bit rate                 : 1 084 Kbps
Writing application              : transcode-1.0.2

Video
ID                               : 0
Format                           : MPEG-4 Visual
Format profile                   : Simple@L1
Format settings, BVOP            : No
Format settings, QPel            : No
Format settings, GMC             : No warppoints
Format settings, Matrix          : Default (H.263)
Codec ID                         : DX50
Codec ID/Hint                    : DivX 5
Duration                         : 1h 27mn
Bit rate                         : 944 Kbps
Width                            : 848 pixels
Height                           : 480 pixels
Display aspect ratio             : 16:9
Frame rate                       : 23.976 fps
Resolution                       : 24 bits
Colorimetry                      : 4:2:0
Scan type                        : Progressive
Bits/(Pixel*Frame)               : 0.097
Stream size                      : 589 MiB (87%)
Writing library                  : Lavc51.40.4

Audio
ID                               : 1
Format                           : MPEG Audio
Format version                   : Version 1
Format profile                   : Layer 3
Format_Settings_Mode             : Joint stereo / MS Stereo
Codec ID                         : 55
Codec ID/Hint                    : MP3
Duration                         : 1h 27mn
Bit rate mode                    : Constant
Bit rate                         : 128 Kbps
Channel(s)                       : 2 channels
Sampling rate                    : 48.0 KHz
Resolution                       : 16 bits
Stream size                      : 79.9 MiB (12%)
Alignment                        : Aligned on interleaves
Interleave, duration             : 24 ms (0.58 video frame)
Interleave, preload duration     : 48 ms
Writing library                  : LAME3.97 (beta)